<svg xmlns="http://www.w3.org/2000/svg" xmlns:xlink="http://www.w3.org/1999/xlink" width="379.254" height="70.241" viewBox="0 0 379.254 70.241">
  <defs>
    <linearGradient id="linear-gradient" x1="1.055" y1="1.103" x2="0.09" y2="0.101" gradientUnits="objectBoundingBox">
      <stop offset="0" stop-color="#01adf6"/>
      <stop offset="0.526" stop-color="#840264"/>
      <stop offset="1" stop-color="#ce1d2c"/>
    </linearGradient>
  </defs>
  <g id="Group_188343" data-name="Group 188343" transform="translate(-8245 3624)">
    <g id="Group_188340" data-name="Group 188340" transform="translate(-21.246 196)">
      <g id="Group_188117" data-name="Group 188117">
        <g id="Group_188116" data-name="Group 188116">
          <g id="Group_188115" data-name="Group 188115">
            <g id="Group_188341" data-name="Group 188341" transform="translate(11.5 8)">
              <g id="Group_188114" data-name="Group 188114" transform="translate(0 -10.182)">
                <path id="Path_171716" data-name="Path 171716" d="M121.516,72.73V85.317h-7.552a18.482,18.482,0,0,1-12.588-3.946q-4.514-3.945-4.514-12.891V49.213h-5.9V36.886h5.9V25.08h14.845V36.886h9.73V49.213h-9.723V68.658a4.071,4.071,0,0,0,1.042,3.117,5.085,5.085,0,0,0,3.472.955Zm15.7-40.879a8.992,8.992,0,0,1-6.372-2.308,7.448,7.448,0,0,1-2.474-5.686,7.55,7.55,0,0,1,2.474-5.773,8.995,8.995,0,0,1,6.372-2.3,8.879,8.879,0,0,1,6.294,2.3,7.55,7.55,0,0,1,2.474,5.773,7.455,7.455,0,0,1-2.474,5.686,8.879,8.879,0,0,1-6.294,2.308m7.379,5.035V85.317H129.763V36.878Zm72.572-.521a19.157,19.157,0,0,1,14.367,5.469q5.339,5.469,5.338,15.192V85.317H222.119v-26.3a10.008,10.008,0,0,0-2.474-7.248,10.335,10.335,0,0,0-13.629,0,10,10,0,0,0-2.466,7.248v26.3H188.792v-26.3a10,10,0,0,0-2.474-7.248,10.335,10.335,0,0,0-13.629,0,10.008,10.008,0,0,0-2.474,7.248v26.3H155.371V36.878h14.844v6.077a15.889,15.889,0,0,1,5.9-4.818,18.563,18.563,0,0,1,8.247-1.776,20.061,20.061,0,0,1,9.766,2.344,16.8,16.8,0,0,1,6.728,6.684,19.5,19.5,0,0,1,6.858-6.51,18.527,18.527,0,0,1,9.462-2.522Zm75.791,23.951a37.707,37.707,0,0,1-.26,4.341h-33.6a10.1,10.1,0,0,0,2.908,6.9,8.879,8.879,0,0,0,6.294,2.387,7.8,7.8,0,0,0,7.726-4.691h15.8a21.684,21.684,0,0,1-4.384,8.594,21.945,21.945,0,0,1-7.943,5.989,25.506,25.506,0,0,1-10.677,2.171,25.979,25.979,0,0,1-12.674-3.039,21.607,21.607,0,0,1-8.681-8.68A26.793,26.793,0,0,1,244.35,61.1,27.1,27.1,0,0,1,247.431,47.9a21.329,21.329,0,0,1,8.638-8.681,28.1,28.1,0,0,1,25.261-.079,21.194,21.194,0,0,1,8.551,8.42,25.565,25.565,0,0,1,3.081,12.753M277.771,56.41a7.631,7.631,0,0,0-2.6-6.077,9.592,9.592,0,0,0-6.511-2.257,9.4,9.4,0,0,0-6.293,2.171,9.639,9.639,0,0,0-3.169,6.163Z" transform="translate(8255 -3833.594)" fill="#373737"/>
                <path id="Path_171717" data-name="Path 171717" d="M8.856,31.851a9,9,0,0,1-6.379-2.308A7.449,7.449,0,0,1,0,23.857a7.553,7.553,0,0,1,2.475-5.773,8.995,8.995,0,0,1,6.379-2.3,8.884,8.884,0,0,1,6.3,2.3,7.556,7.556,0,0,1,2.474,5.773,7.457,7.457,0,0,1-2.474,5.686,8.887,8.887,0,0,1-6.3,2.308m7.38,5.035V85.317H1.391V36.878Zm40.278-.529A17.581,17.581,0,0,1,70.1,41.869a21.507,21.507,0,0,1,5.078,15.148v28.3H60.42v-26.3A10.627,10.627,0,0,0,57.9,51.462a8.827,8.827,0,0,0-6.771-2.691,8.827,8.827,0,0,0-6.771,2.691,10.637,10.637,0,0,0-2.518,7.552v26.3H27V36.878H41.843v6.416a15.655,15.655,0,0,1,6.077-5.078,19.323,19.323,0,0,1,8.594-1.859" transform="translate(8254.746 -3833.594)" fill="#373737"/>
              </g>
              <g id="Group_188113" data-name="Group 188113" transform="translate(0 6)">
                <rect id="Rectangle_68627" data-name="Rectangle 68627" width="70" height="70" rx="10" transform="translate(8564 -3834)" fill="url(#linear-gradient)"/>
                <g id="Group_188112" data-name="Group 188112" transform="translate(8573.551 -3821.036)">
                  <path id="Path_171718" data-name="Path 171718" d="M361.35,28.938a5.615,5.615,0,0,0-10.2,0l-2.578-1.193a8.457,8.457,0,0,1,15.354,0Z" transform="translate(-330.822 -20.716)" fill="#fff"/>
                  <path id="Path_171719" data-name="Path 171719" d="M333.024,40.665A10.468,10.468,0,1,1,343.492,30.2h0a10.466,10.466,0,0,1-10.466,10.466Zm0-18.1a7.619,7.619,0,1,0,5.385,2.235,7.619,7.619,0,0,0-5.385-2.235" transform="translate(-322.557 -19.729)" fill="#fff"/>
                  <path id="Path_171720" data-name="Path 171720" d="M377.229,40.666a10.475,10.475,0,1,1,.005,0Zm0-18.1a7.619,7.619,0,1,0,5.4,2.232,7.619,7.619,0,0,0-5.4-2.232" transform="translate(-336.603 -19.73)" fill="#fff"/>
                  <path id="Path_171721" data-name="Path 171721" d="M326.716,70.294v6.092h-4.157V59.425h8.715a7.151,7.151,0,0,1,3.07.577,4.755,4.755,0,0,1,2.743,3.635,8.33,8.33,0,0,1,.152,1.537,5.094,5.094,0,0,1-1.067,3.339,4.81,4.81,0,0,1-3.021,1.638,11.121,11.121,0,0,1-1.775.134Zm0-3.685H331.1c1.308,0,1.967-.549,1.967-1.661a1.5,1.5,0,0,0-1.234-1.661,4.492,4.492,0,0,0-.735-.062h-4.385Z" transform="translate(-322.558 -32.338)" fill="#fff"/>
                  <path id="Path_171722" data-name="Path 171722" d="M347.151,59.424h9.165a5.519,5.519,0,0,1,3.852,1.245,4.781,4.781,0,0,1,1.59,3.718,4.684,4.684,0,0,1-1.785,3.769,5.586,5.586,0,0,1,1.4,2.524q.134.5.379,5.7h-4.087l-.148-3.2q-.19-1-.324-1.609a2.207,2.207,0,0,0-1.785-1.655,3.849,3.849,0,0,0-.82-.084h-3.439V76.38h-4Zm4,6.806h4.4c.9,0,1.471-.269,1.7-.808a1.46,1.46,0,0,0,.152-.65c0-1.034-.619-1.545-1.847-1.545h-4.406Z" transform="translate(-330.366 -32.336)" fill="#fff"/>
                  <path id="Path_171723" data-name="Path 171723" d="M380.485,59.395a8.828,8.828,0,0,1,6.4,2.376,9.019,9.019,0,0,1,0,12.222,9.774,9.774,0,0,1-12.775,0,8.034,8.034,0,0,1-2.391-6.1,8.165,8.165,0,0,1,2.424-6.159,8.763,8.763,0,0,1,6.34-2.341Zm0,3.769a4.557,4.557,0,0,0-3.989,1.923,4.71,4.71,0,0,0-.869,2.813,4.786,4.786,0,0,0,.906,2.858,4.16,4.16,0,0,0,2.407,1.656,5.5,5.5,0,0,0,1.545.217,4.577,4.577,0,0,0,4-1.919,4.987,4.987,0,0,0-.033-5.682,4.288,4.288,0,0,0-2.423-1.67,6.131,6.131,0,0,0-1.547-.2Z" transform="translate(-338.171 -32.327)" fill="#fff"/>
                </g>
              </g>
            </g>
          </g>
        </g>
      </g>
    </g>
  </g>
</svg>
